<svg width="82" height="82" viewBox="0 0 82 82" fill="none" xmlns="http://www.w3.org/2000/svg">
<g filter="url(#filter0_d_1_219)">
<circle cx="41" cy="33" r="17" fill="url(#paint0_linear_1_219)"/>
</g>
<path d="M34.9288 32.2493C34.5146 32.2493 34.1788 32.5851 34.1788 32.9993C34.1788 33.4135 34.5146 33.7493 34.9288 33.7493V32.2493ZM41.0003 33.7493C41.4145 33.7493 41.7503 33.4135 41.7503 32.9993C41.7503 32.5851 41.4145 32.2493 41.0003 32.2493V33.7493ZM41.0003 32.2493C40.586 32.2493 40.2503 32.5851 40.2503 32.9993C40.2503 33.4135 40.586 33.7493 41.0003 33.7493V32.2493ZM47.0717 33.7493C47.4859 33.7493 47.8217 33.4135 47.8217 32.9993C47.8217 32.5851 47.4859 32.2493 47.0717 32.2493V33.7493ZM41.7503 32.9993C41.7503 32.5851 41.4145 32.2493 41.0003 32.2493C40.586 32.2493 40.2503 32.5851 40.2503 32.9993H41.7503ZM40.2503 39.0707C40.2503 39.4849 40.586 39.8207 41.0003 39.8207C41.4145 39.8207 41.7503 39.4849 41.7503 39.0707H40.2503ZM40.2503 32.9993C40.2503 33.4135 40.586 33.7493 41.0003 33.7493C41.4145 33.7493 41.7503 33.4135 41.7503 32.9993H40.2503ZM41.7503 26.9279C41.7503 26.5136 41.4145 26.1779 41.0003 26.1779C40.586 26.1779 40.2503 26.5136 40.2503 26.9279H41.7503ZM34.9288 33.7493H41.0003V32.2493H34.9288V33.7493ZM41.0003 33.7493H47.0717V32.2493H41.0003V33.7493ZM41.0003 32.9993H40.2503C40.2503 32.9993 40.2503 32.9993 40.2503 32.9993V32.9993C40.2503 32.9993 40.2503 32.9993 40.2503 32.9993C40.2503 32.9993 40.2503 32.9993 40.2503 32.9993C40.2503 32.9993 40.2503 32.9993 40.2503 32.9993C40.2503 32.9993 40.2503 32.9993 40.2503 32.9993C40.2503 32.9993 40.2503 32.9993 40.2503 32.9993C40.2503 32.9993 40.2503 32.9993 40.2503 32.9993C40.2503 32.9993 40.2503 32.9993 40.2503 32.9993C40.2503 32.9993 40.2503 32.9993 40.2503 32.9993C40.2503 32.9994 40.2503 32.9994 40.2503 32.9994C40.2503 32.9994 40.2503 32.9994 40.2503 32.9994C40.2503 32.9994 40.2503 32.9994 40.2503 32.9994C40.2503 32.9994 40.2503 32.9994 40.2503 32.9994C40.2503 32.9994 40.2503 32.9995 40.2503 32.9995C40.2503 32.9995 40.2503 32.9995 40.2503 32.9995C40.2503 32.9995 40.2503 32.9995 40.2503 32.9995C40.2503 32.9996 40.2503 32.9996 40.2503 32.9996C40.2503 32.9996 40.2503 32.9996 40.2503 32.9996C40.2503 32.9997 40.2503 32.9997 40.2503 32.9997C40.2503 32.9997 40.2503 32.9997 40.2503 32.9998C40.2503 32.9998 40.2503 32.9998 40.2503 32.9998C40.2503 32.9999 40.2503 32.9999 40.2503 32.9999C40.2503 32.9999 40.2503 33 40.2503 33C40.2503 33 40.2503 33 40.2503 33.0001C40.2503 33.0001 40.2503 33.0001 40.2503 33.0002C40.2503 33.0002 40.2503 33.0002 40.2503 33.0003C40.2503 33.0003 40.2503 33.0003 40.2503 33.0004C40.2503 33.0004 40.2503 33.0005 40.2503 33.0005C40.2503 33.0005 40.2503 33.0006 40.2503 33.0006C40.2503 33.0007 40.2503 33.0007 40.2503 33.0008C40.2503 33.0008 40.2503 33.0009 40.2503 33.0009C40.2503 33.001 40.2503 33.001 40.2503 33.0011C40.2503 33.0011 40.2503 33.0012 40.2503 33.0012C40.2503 33.0013 40.2503 33.0013 40.2503 33.0014C40.2503 33.0015 40.2503 33.0015 40.2503 33.0016C40.2503 33.0016 40.2503 33.0017 40.2503 33.0018C40.2503 33.0018 40.2503 33.0019 40.2503 33.002C40.2503 33.002 40.2503 33.0021 40.2503 33.0022C40.2503 33.0023 40.2503 33.0023 40.2503 33.0024C40.2503 33.0025 40.2503 33.0026 40.2503 33.0026C40.2503 33.0027 40.2503 33.0028 40.2503 33.0029C40.2503 33.003 40.2503 33.0031 40.2503 33.0031C40.2503 33.0032 40.2503 33.0033 40.2503 33.0034C40.2503 33.0035 40.2503 33.0036 40.2503 33.0037C40.2503 33.0038 40.2503 33.0039 40.2503 33.004C40.2503 33.0041 40.2503 33.0042 40.2503 33.0043C40.2503 33.0044 40.2503 33.0045 40.2503 33.0046C40.2503 33.0047 40.2503 33.0048 40.2503 33.0049C40.2503 33.0051 40.2503 33.0052 40.2503 33.0053C40.2503 33.0054 40.2503 33.0055 40.2503 33.0056C40.2503 33.0058 40.2503 33.0059 40.2503 33.006C40.2503 33.0061 40.2503 33.0063 40.2503 33.0064C40.2503 33.0065 40.2503 33.0067 40.2503 33.0068C40.2503 33.0069 40.2503 33.0071 40.2503 33.0072C40.2503 33.0074 40.2503 33.0075 40.2503 33.0077C40.2503 33.0078 40.2503 33.008 40.2503 33.0081C40.2503 33.0083 40.2503 33.0084 40.2503 33.0086C40.2503 33.0087 40.2503 33.0089 40.2503 33.0091C40.2503 33.0092 40.2503 33.0094 40.2503 33.0096C40.2503 33.0097 40.2503 33.0099 40.2503 33.0101C40.2503 33.0102 40.2503 33.0104 40.2503 33.0106C40.2503 33.0108 40.2503 33.011 40.2503 33.0111C40.2503 33.0113 40.2503 33.0115 40.2503 33.0117C40.2503 33.0119 40.2503 33.0121 40.2503 33.0123C40.2503 33.0125 40.2503 33.0127 40.2503 33.0129C40.2503 33.0131 40.2503 33.0133 40.2503 33.0135C40.2503 33.0137 40.2503 33.0139 40.2503 33.0141C40.2503 33.0144 40.2503 33.0146 40.2503 33.0148C40.2503 33.015 40.2503 33.0152 40.2503 33.0155C40.2503 33.0157 40.2503 33.0159 40.2503 33.0162C40.2503 33.0164 40.2503 33.0166 40.2503 33.0169C40.2503 33.0171 40.2503 33.0174 40.2503 33.0176C40.2503 33.0179 40.2503 33.0181 40.2503 33.0184C40.2503 33.0186 40.2503 33.0189 40.2503 33.0191C40.2503 33.0194 40.2503 33.0197 40.2503 33.0199C40.2503 33.0202 40.2503 33.0205 40.2503 33.0208C40.2503 33.021 40.2503 33.0213 40.2503 33.0216C40.2503 33.0219 40.2503 33.0222 40.2503 33.0224C40.2503 33.0227 40.2503 33.023 40.2503 33.0233C40.2503 33.0236 40.2503 33.0239 40.2503 33.0242C40.2503 33.0245 40.2503 33.0248 40.2503 33.0251C40.2503 33.0255 40.2503 33.0258 40.2503 33.0261C40.2503 33.0264 40.2503 33.0267 40.2503 33.0271C40.2503 33.0274 40.2503 33.0277 40.2503 33.0281C40.2503 33.0284 40.2503 33.0287 40.2503 33.0291C40.2503 33.0294 40.2503 33.0298 40.2503 33.0301C40.2503 33.0305 40.2503 33.0308 40.2503 33.0312C40.2503 33.0315 40.2503 33.0319 40.2503 33.0323C40.2503 33.0326 40.2503 33.033 40.2503 33.0334C40.2503 33.0337 40.2503 33.0341 40.2503 33.0345C40.2503 33.0349 40.2503 33.0353 40.2503 33.0357C40.2503 33.0361 40.2503 33.0365 40.2503 33.0369C40.2503 33.0373 40.2503 33.0377 40.2503 33.0381C40.2503 33.0385 40.2503 33.0389 40.2503 33.0393C40.2503 33.0397 40.2503 33.0401 40.2503 33.0406C40.2503 33.041 40.2503 33.0414 40.2503 33.0419C40.2503 33.0423 40.2503 33.0427 40.2503 33.0432C40.2503 33.0436 40.2503 33.0441 40.2503 33.0445C40.2503 33.045 40.2503 33.0454 40.2503 33.0459C40.2503 33.0464 40.2503 33.0468 40.2503 33.0473C40.2503 33.0478 40.2503 33.0482 40.2503 33.0487C40.2503 33.0492 40.2503 33.0497 40.2503 33.0502C40.2503 33.0507 40.2503 33.0512 40.2503 33.0517C40.2503 33.0521 40.2503 33.0527 40.2503 33.0532C40.2503 33.0537 40.2503 33.0542 40.2503 33.0547C40.2503 33.0552 40.2503 33.0557 40.2503 33.0563C40.2503 33.0568 40.2503 33.0573 40.2503 33.0579C40.2503 33.0584 40.2503 33.0589 40.2503 33.0595C40.2503 33.06 40.2503 33.0606 40.2503 33.0612C40.2503 33.0617 40.2503 33.0623 40.2503 33.0628C40.2503 33.0634 40.2503 33.064 40.2503 33.0646C40.2503 33.0651 40.2503 33.0657 40.2503 33.0663C40.2503 33.0669 40.2503 33.0675 40.2503 33.0681C40.2503 33.0687 40.2503 33.0693 40.2503 33.0699C40.2503 33.0705 40.2503 33.0711 40.2503 33.0717C40.2503 33.0724 40.2503 33.073 40.2503 33.0736C40.2503 33.0742 40.2503 33.0749 40.2503 33.0755C40.2503 33.0762 40.2503 33.0768 40.2503 33.0775C40.2503 33.0781 40.2503 33.0788 40.2503 33.0794C40.2503 33.0801 40.2503 33.0808 40.2503 33.0814C40.2503 33.0821 40.2503 33.0828 40.2503 33.0835C40.2503 33.0841 40.2503 33.0848 40.2503 33.0855C40.2503 33.0862 40.2503 33.0869 40.2503 33.0876C40.2503 33.0883 40.2503 33.0891 40.2503 33.0898C40.2503 33.0905 40.2503 33.0912 40.2503 33.0919C40.2503 33.0927 40.2503 33.0934 40.2503 33.0942C40.2503 33.0949 40.2503 33.0956 40.2503 33.0964C40.2503 33.0971 40.2503 33.0979 40.2503 33.0987C40.2503 33.0994 40.2503 33.1002 40.2503 33.101C40.2503 33.1018 40.2503 33.1025 40.2503 33.1033C40.2503 33.1041 40.2503 33.1049 40.2503 33.1057C40.2503 33.1065 40.2503 33.1073 40.2503 33.1081C40.2503 33.1089 40.2503 33.1098 40.2503 33.1106C40.2503 33.1114 40.2503 33.1122 40.2503 33.1131C40.2503 33.1139 40.2503 33.1148 40.2503 33.1156C40.2503 33.1165 40.2503 33.1173 40.2503 33.1182C40.2503 33.119 40.2503 33.1199 40.2503 33.1208C40.2503 33.1216 40.2503 33.1225 40.2503 33.1234C40.2503 33.1243 40.2503 33.1252 40.2503 33.1261C40.2503 33.127 40.2503 33.1279 40.2503 33.1288C40.2503 33.1297 40.2503 33.1306 40.2503 33.1316C40.2503 33.1325 40.2503 33.1334 40.2503 33.1344C40.2503 33.1353 40.2503 33.1362 40.2503 33.1372C40.2503 33.1381 40.2503 33.1391 40.2503 33.1401C40.2503 33.141 40.2503 33.142 40.2503 33.143C40.2503 33.144 40.2503 33.1449 40.2503 33.1459C40.2503 33.1469 40.2503 33.1479 40.2503 33.1489C40.2503 33.1499 40.2503 33.1509 40.2503 33.152C40.2503 33.153 40.2503 33.154 40.2503 33.155C40.2503 33.1561 40.2503 33.1571 40.2503 33.1581C40.2503 33.1592 40.2503 33.1602 40.2503 33.1613C40.2503 33.1624 40.2503 33.1634 40.2503 33.1645C40.2503 33.1656 40.2503 33.1666 40.2503 33.1677C40.2503 33.1688 40.2503 33.1699 40.2503 33.171C40.2503 33.1721 40.2503 33.1732 40.2503 33.1743C40.2503 33.1755 40.2503 33.1766 40.2503 33.1777C40.2503 33.1788 40.2503 33.18 40.2503 33.1811C40.2503 33.1823 40.2503 33.1834 40.2503 33.1846C40.2503 33.1857 40.2503 33.1869 40.2503 33.1881C40.2503 33.1892 40.2503 33.1904 40.2503 33.1916C40.2503 33.1928 40.2503 33.194 40.2503 33.1952C40.2503 33.1964 40.2503 33.1976 40.2503 33.1988C40.2503 33.2 40.2503 33.2013 40.2503 33.2025C40.2503 33.2037 40.2503 33.205 40.2503 33.2062C40.2503 33.2075 40.2503 33.2087 40.2503 33.21C40.2503 33.2112 40.2503 33.2125 40.2503 33.2138C40.2503 33.2151 40.2503 33.2163 40.2503 33.2176C40.2503 33.2189 40.2503 33.2202 40.2503 33.2215C40.2503 33.2228 40.2503 33.2241 40.2503 33.2255C40.2503 33.2268 40.2503 33.2281 40.2503 33.2295C40.2503 33.2308 40.2503 33.2321 40.2503 33.2335C40.2503 33.2349 40.2503 33.2362 40.2503 33.2376C40.2503 33.239 40.2503 33.2403 40.2503 33.2417C40.2503 33.2431 40.2503 33.2445 40.2503 33.2459C40.2503 33.2473 40.2503 33.2487 40.2503 33.2501C40.2503 33.2515 40.2503 33.253 40.2503 33.2544C40.2503 33.2558 40.2503 33.2573 40.2503 33.2587C40.2503 33.2602 40.2503 33.2616 40.2503 33.2631C40.2503 33.2646 40.2503 33.266 40.2503 33.2675C40.2503 33.269 40.2503 33.2705 40.2503 33.272C40.2503 33.2735 40.2503 33.275 40.2503 33.2765C40.2503 33.278 40.2503 33.2795 40.2503 33.2811C40.2503 33.2826 40.2503 33.2842 40.2503 33.2857C40.2503 33.2872 40.2503 33.2888 40.2503 33.2904C40.2503 33.2919 40.2503 33.2935 40.2503 33.2951C40.2503 33.2967 40.2503 33.2983 40.2503 33.2999C40.2503 33.3015 40.2503 33.3031 40.2503 33.3047C40.2503 33.3063 40.2503 33.3079 40.2503 33.3096C40.2503 33.3112 40.2503 33.3128 40.2503 33.3145C40.2503 33.3161 40.2503 33.3178 40.2503 33.3195C40.2503 33.3211 40.2503 33.3228 40.2503 33.3245C40.2503 33.3262 40.2503 33.3279 40.2503 33.3296C40.2503 33.3313 40.2503 33.333 40.2503 33.3347C40.2503 33.3364 40.2503 33.3382 40.2503 33.3399C40.2503 33.3416 40.2503 33.3434 40.2503 33.3451C40.2503 33.3469 40.2503 33.3486 40.2503 33.3504C40.2503 33.3522 40.2503 33.354 40.2503 33.3558C40.2503 33.3576 40.2503 33.3594 40.2503 33.3612C40.2503 33.363 40.2503 33.3648 40.2503 33.3666C40.2503 33.3685 40.2503 33.3703 40.2503 33.3721C40.2503 33.374 40.2503 33.3758 40.2503 33.3777C40.2503 33.3796 40.2503 33.3814 40.2503 33.3833C40.2503 33.3852 40.2503 33.3871 40.2503 33.389C40.2503 33.3909 40.2503 33.3928 40.2503 33.3947C40.2503 33.3966 40.2503 33.3986 40.2503 33.4005C40.2503 33.4025 40.2503 33.4044 40.2503 33.4064C40.2503 33.4083 40.2503 33.4103 40.2503 33.4123C40.2503 33.4142 40.2503 33.4162 40.2503 33.4182C40.2503 33.4202 40.2503 33.4222 40.2503 33.4242C40.2503 33.4262 40.2503 33.4283 40.2503 33.4303C40.2503 33.4323 40.2503 33.4344 40.2503 33.4364C40.2503 33.4385 40.2503 33.4405 40.2503 33.4426C40.2503 33.4447 40.2503 33.4468 40.2503 33.4489C40.2503 33.4509 40.2503 33.453 40.2503 33.4552C40.2503 33.4573 40.2503 33.4594 40.2503 33.4615C40.2503 33.4636 40.2503 33.4658 40.2503 33.4679C40.2503 33.4701 40.2503 33.4722 40.2503 33.4744C40.2503 33.4766 40.2503 33.4788 40.2503 33.481C40.2503 33.4831 40.2503 33.4853 40.2503 33.4876C40.2503 33.4898 40.2503 33.492 40.2503 33.4942C40.2503 33.4964 40.2503 33.4987 40.2503 33.5009C40.2503 33.5032 40.2503 33.5054 40.2503 33.5077C40.2503 33.51 40.2503 33.5123 40.2503 33.5145C40.2503 33.5168 40.2503 33.5191 40.2503 33.5214C40.2503 33.5238 40.2503 33.5261 40.2503 33.5284C40.2503 33.5307 40.2503 33.5331 40.2503 33.5354C40.2503 33.5378 40.2503 33.5401 40.2503 33.5425C40.2503 33.5449 40.2503 33.5473 40.2503 33.5497C40.2503 33.5521 40.2503 33.5545 40.2503 33.5569C40.2503 33.5593 40.2503 33.5617 40.2503 33.5641C40.2503 33.5666 40.2503 33.569 40.2503 33.5715C40.2503 33.5739 40.2503 33.5764 40.2503 33.5789C40.2503 33.5814 40.2503 33.5838 40.2503 33.5863C40.2503 33.5888 40.2503 33.5914 40.2503 33.5939C40.2503 33.5964 40.2503 33.5989 40.2503 33.6015C40.2503 33.604 40.2503 33.6066 40.2503 33.6091C40.2503 33.6117 40.2503 33.6143 40.2503 33.6168C40.2503 33.6194 40.2503 33.622 40.2503 33.6246C40.2503 33.6272 40.2503 33.6298 40.2503 33.6325C40.2503 33.6351 40.2503 33.6377 40.2503 33.6404C40.2503 33.643 40.2503 33.6457 40.2503 33.6484C40.2503 33.651 40.2503 33.6537 40.2503 33.6564C40.2503 33.6591 40.2503 33.6618 40.2503 33.6645C40.2503 33.6672 40.2503 33.67 40.2503 33.6727C40.2503 33.6754 40.2503 33.6782 40.2503 33.681C40.2503 33.6837 40.2503 33.6865 40.2503 33.6893C40.2503 33.692 40.2503 33.6948 40.2503 33.6976C40.2503 33.7004 40.2503 33.7033 40.2503 33.7061C40.2503 33.7089 40.2503 33.7118 40.2503 33.7146C40.2503 33.7175 40.2503 33.7203 40.2503 33.7232C40.2503 33.7261 40.2503 33.7289 40.2503 33.7318C40.2503 33.7347 40.2503 33.7376 40.2503 33.7406C40.2503 33.7435 40.2503 33.7464 40.2503 33.7494C40.2503 33.7523 40.2503 33.7552 40.2503 33.7582C40.2503 33.7612 40.2503 33.7642 40.2503 33.7671C40.2503 33.7701 40.2503 33.7731 40.2503 33.7761C40.2503 33.7792 40.2503 33.7822 40.2503 33.7852C40.2503 33.7882 40.2503 33.7913 40.2503 33.7943C40.2503 33.7974 40.2503 33.8005 40.2503 33.8036C40.2503 33.8066 40.2503 33.8097 40.2503 33.8128C40.2503 33.8159 40.2503 33.8191 40.2503 33.8222C40.2503 33.8253 40.2503 33.8285 40.2503 33.8316C40.2503 33.8348 40.2503 33.8379 40.2503 33.8411C40.2503 33.8443 40.2503 33.8475 40.2503 33.8507C40.2503 33.8539 40.2503 33.8571 40.2503 33.8603C40.2503 33.8635 40.2503 33.8668 40.2503 33.87C40.2503 33.8733 40.2503 33.8765 40.2503 33.8798C40.2503 33.8831 40.2503 33.8864 40.2503 33.8897C40.2503 33.893 40.2503 33.8963 40.2503 33.8996C40.2503 33.9029 40.2503 33.9062 40.2503 33.9096C40.2503 33.9129 40.2503 33.9163 40.2503 33.9197C40.2503 33.923 40.2503 33.9264 40.2503 33.9298C40.2503 33.9332 40.2503 33.9366 40.2503 33.94C40.2503 33.9435 40.2503 33.9469 40.2503 33.9503C40.2503 33.9538 40.2503 33.9572 40.2503 33.9607C40.2503 33.9642 40.2503 33.9677 40.2503 33.9712C40.2503 33.9747 40.2503 33.9782 40.2503 33.9817C40.2503 33.9852 40.2503 33.9888 40.2503 33.9923C40.2503 33.9958 40.2503 33.9994 40.2503 34.003C40.2503 34.0065 40.2503 34.0101 40.2503 34.0137C40.2503 34.0173 40.2503 34.0209 40.2503 34.0246C40.2503 34.0282 40.2503 34.0318 40.2503 34.0355C40.2503 34.0391 40.2503 34.0428 40.2503 34.0465C40.2503 34.0501 40.2503 34.0538 40.2503 34.0575C40.2503 34.0612 40.2503 34.0649 40.2503 34.0687C40.2503 34.0724 40.2503 34.0761 40.2503 34.0799C40.2503 34.0836 40.2503 34.0874 40.2503 34.0912C40.2503 34.0949 40.2503 34.0987 40.2503 34.1025C40.2503 34.1063 40.2503 34.1102 40.2503 34.114C40.2503 34.1178 40.2503 34.1217 40.2503 34.1255C40.2503 34.1294 40.2503 34.1332 40.2503 34.1371C40.2503 34.141 40.2503 34.1449 40.2503 34.1488C40.2503 34.1527 40.2503 34.1567 40.2503 34.1606C40.2503 34.1645 40.2503 34.1685 40.2503 34.1724C40.2503 34.1764 40.2503 34.1804 40.2503 34.1844C40.2503 34.1884 40.2503 34.1924 40.2503 34.1964C40.2503 34.2004 40.2503 34.2044 40.2503 34.2085C40.2503 34.2125 40.2503 34.2166 40.2503 34.2206C40.2503 34.2247 40.2503 34.2288 40.2503 34.2329C40.2503 34.237 40.2503 34.2411 40.2503 34.2452C40.2503 34.2494 40.2503 34.2535 40.2503 34.2577C40.2503 34.2618 40.2503 34.266 40.2503 34.2702C40.2503 34.2743 40.2503 34.2785 40.2503 34.2827C40.2503 34.2869 40.2503 34.2912 40.2503 34.2954C40.2503 34.2996 40.2503 34.3039 40.2503 34.3082C40.2503 34.3124 40.2503 34.3167 40.2503 34.321C40.2503 34.3253 40.2503 34.3296 40.2503 34.3339C40.2503 34.3382 40.2503 34.3426 40.2503 34.3469C40.2503 34.3512 40.2503 34.3556 40.2503 34.36C40.2503 34.3644 40.2503 34.3687 40.2503 34.3732C40.2503 34.3776 40.2503 34.382 40.2503 34.3864C40.2503 34.3908 40.2503 34.3953 40.2503 34.3997C40.2503 34.4042 40.2503 34.4087 40.2503 34.4132C40.2503 34.4177 40.2503 34.4222 40.2503 34.4267C40.2503 34.4312 40.2503 34.4357 40.2503 34.4403C40.2503 34.4448 40.2503 34.4494 40.2503 34.4539C40.2503 34.4585 40.2503 34.4631 40.2503 34.4677C40.2503 34.4723 40.2503 34.4769 40.2503 34.4816C40.2503 34.4862 40.2503 34.4908 40.2503 34.4955C40.2503 34.5002 40.2503 34.5048 40.2503 34.5095C40.2503 34.5142 40.2503 34.5189 40.2503 34.5236C40.2503 34.5284 40.2503 34.5331 40.2503 34.5379C40.2503 34.5426 40.2503 34.5474 40.2503 34.5521C40.2503 34.5569 40.2503 34.5617 40.2503 34.5665C40.2503 34.5713 40.2503 34.5761 40.2503 34.581C40.2503 34.5858 40.2503 34.5907 40.2503 34.5955C40.2503 34.6004 40.2503 34.6053 40.2503 34.6102C40.2503 34.6151 40.2503 34.62 40.2503 34.6249C40.2503 34.6298 40.2503 34.6348 40.2503 34.6397C40.2503 34.6447 40.2503 34.6497 40.2503 34.6547C40.2503 34.6596 40.2503 34.6646 40.2503 34.6697C40.2503 34.6747 40.2503 34.6797 40.2503 34.6848C40.2503 34.6898 40.2503 34.6949 40.2503 34.6999C40.2503 34.705 40.2503 34.7101 40.2503 34.7152C40.2503 34.7203 40.2503 34.7254 40.2503 34.7306C40.2503 34.7357 40.2503 34.7409 40.2503 34.746C40.2503 34.7512 40.2503 34.7564 40.2503 34.7616C40.2503 34.7668 40.2503 34.772 40.2503 34.7772C40.2503 34.7825 40.2503 34.7877 40.2503 34.793C40.2503 34.7982 40.2503 34.8035 40.2503 34.8088C40.2503 34.8141 40.2503 34.8194 40.2503 34.8247C40.2503 34.83 40.2503 34.8354 40.2503 34.8407C40.2503 34.8461 40.2503 34.8514 40.2503 34.8568C40.2503 34.8622 40.2503 34.8676 40.2503 34.873C40.2503 34.8784 40.2503 34.8839 40.2503 34.8893C40.2503 34.8948 40.2503 34.9002 40.2503 34.9057C40.2503 34.9112 40.2503 34.9167 40.2503 34.9222C40.2503 34.9277 40.2503 34.9332 40.2503 34.9388C40.2503 34.9443 40.2503 34.9499 40.2503 34.9554C40.2503 34.961 40.2503 34.9666 40.2503 34.9722C40.2503 34.9778 40.2503 34.9834 40.2503 34.9891C40.2503 34.9947 40.2503 35.0004 40.2503 35.006C40.2503 35.0117 40.2503 35.0174 40.2503 35.0231C40.2503 35.0288 40.2503 35.0345 40.2503 35.0402C40.2503 35.046 40.2503 35.0517 40.2503 35.0575C40.2503 35.0632 40.2503 35.069 40.2503 35.0748C40.2503 35.0806 40.2503 35.0864 40.2503 35.0923C40.2503 35.0981 40.2503 35.1039 40.2503 35.1098C40.2503 35.1157 40.2503 35.1215 40.2503 35.1274C40.2503 35.1333 40.2503 35.1392 40.2503 35.1452C40.2503 35.1511 40.2503 35.157 40.2503 35.163C40.2503 35.169 40.2503 35.1749 40.2503 35.1809C40.2503 35.1869 40.2503 35.1929 40.2503 35.199C40.2503 35.205 40.2503 35.211 40.2503 35.2171C40.2503 35.2232 40.2503 35.2292 40.2503 35.2353C40.2503 35.2414 40.2503 35.2475 40.2503 35.2537C40.2503 35.2598 40.2503 35.2659 40.2503 35.2721C40.2503 35.2782 40.2503 35.2844 40.2503 35.2906C40.2503 35.2968 40.2503 35.303 40.2503 35.3092C40.2503 35.3155 40.2503 35.3217 40.2503 35.328C40.2503 35.3342 40.2503 35.3405 40.2503 35.3468C40.2503 35.3531 40.2503 35.3594 40.2503 35.3657C40.2503 35.3721 40.2503 35.3784 40.2503 35.3848C40.2503 35.3911 40.2503 35.3975 40.2503 35.4039C40.2503 35.4103 40.2503 35.4167 40.2503 35.4231C40.2503 35.4296 40.2503 35.436 40.2503 35.4425C40.2503 35.4489 40.2503 35.4554 40.2503 35.4619C40.2503 35.4684 40.2503 35.4749 40.2503 35.4815C40.2503 35.488 40.2503 35.4945 40.2503 35.5011C40.2503 35.5077 40.2503 35.5143 40.2503 35.5209C40.2503 35.5275 40.2503 35.5341 40.2503 35.5407C40.2503 35.5473 40.2503 35.554 40.2503 35.5607C40.2503 35.5673 40.2503 35.574 40.2503 35.5807C40.2503 35.5874 40.2503 35.5942 40.2503 35.6009C40.2503 35.6076 40.2503 35.6144 40.2503 35.6212C40.2503 35.6279 40.2503 35.6347 40.2503 35.6415C40.2503 35.6484 40.2503 35.6552 40.2503 35.662C40.2503 35.6689 40.2503 35.6757 40.2503 35.6826C40.2503 35.6895 40.2503 35.6964 40.2503 35.7033C40.2503 35.7102 40.2503 35.7172 40.2503 35.7241C40.2503 35.7311 40.2503 35.738 40.2503 35.745C40.2503 35.752 40.2503 35.759 40.2503 35.766C40.2503 35.7731 40.2503 35.7801 40.2503 35.7872C40.2503 35.7942 40.2503 35.8013 40.2503 35.8084C40.2503 35.8155 40.2503 35.8226 40.2503 35.8297C40.2503 35.8368 40.2503 35.844 40.2503 35.8512C40.2503 35.8583 40.2503 35.8655 40.2503 35.8727C40.2503 35.8799 40.2503 35.8871 40.2503 35.8944C40.2503 35.9016 40.2503 35.9089 40.2503 35.9161C40.2503 35.9234 40.2503 35.9307 40.2503 35.938C40.2503 35.9453 40.2503 35.9527 40.2503 35.96C40.2503 35.9673 40.2503 35.9747 40.2503 35.9821C40.2503 35.9895 40.2503 35.9969 40.2503 36.0043C40.2503 36.0117 40.2503 36.0192 40.2503 36.0266C40.2503 36.0341 40.2503 36.0415 40.2503 36.049C40.2503 36.0565 40.2503 36.064 40.2503 36.0716C40.2503 36.0791 40.2503 36.0866 40.2503 36.0942C40.2503 36.1018 40.2503 36.1094 40.2503 36.117C40.2503 36.1246 40.2503 36.1322 40.2503 36.1398C40.2503 36.1475 40.2503 36.1551 40.2503 36.1628C40.2503 36.1705 40.2503 36.1782 40.2503 36.1859C40.2503 36.1936 40.2503 36.2014 40.2503 36.2091C40.2503 36.2169 40.2503 36.2246 40.2503 36.2324C40.2503 36.2402 40.2503 36.248 40.2503 36.2559C40.2503 36.2637 40.2503 36.2715 40.2503 36.2794C40.2503 36.2873 40.2503 36.2952 40.2503 36.3031C40.2503 36.311 40.2503 36.3189 40.2503 36.3268C40.2503 36.3348 40.2503 36.3427 40.2503 36.3507C40.2503 36.3587 40.2503 36.3667 40.2503 36.3747C40.2503 36.3827 40.2503 36.3908 40.2503 36.3988C40.2503 36.4069 40.2503 36.4149 40.2503 36.423C40.2503 36.4311 40.2503 36.4392 40.2503 36.4474C40.2503 36.4555 40.2503 36.4637 40.2503 36.4718C40.2503 36.48 40.2503 36.4882 40.2503 36.4964C40.2503 36.5046 40.2503 36.5128 40.2503 36.5211C40.2503 36.5293 40.2503 36.5376 40.2503 36.5459C40.2503 36.5542 40.2503 36.5625 40.2503 36.5708C40.2503 36.5791 40.2503 36.5875 40.2503 36.5958C40.2503 36.6042 40.2503 36.6126 40.2503 36.621C40.2503 36.6294 40.2503 36.6378 40.2503 36.6463C40.2503 36.6547 40.2503 36.6632 40.2503 36.6716C40.2503 36.6801 40.2503 36.6886 40.2503 36.6971C40.2503 36.7057 40.2503 36.7142 40.2503 36.7228C40.2503 36.7313 40.2503 36.7399 40.2503 36.7485C40.2503 36.7571 40.2503 36.7657 40.2503 36.7744C40.2503 36.783 40.2503 36.7917 40.2503 36.8003C40.2503 36.809 40.2503 36.8177 40.2503 36.8264C40.2503 36.8351 40.2503 36.8439 40.2503 36.8526C40.2503 36.8614 40.2503 36.8702 40.2503 36.879C40.2503 36.8878 40.2503 36.8966 40.2503 36.9054C40.2503 36.9143 40.2503 36.9231 40.2503 36.932C40.2503 36.9409 40.2503 36.9498 40.2503 36.9587C40.2503 36.9676 40.2503 36.9765 40.2503 36.9855C40.2503 36.9945 40.2503 37.0034 40.2503 37.0124C40.2503 37.0214 40.2503 37.0305 40.2503 37.0395C40.2503 37.0485 40.2503 37.0576 40.2503 37.0667C40.2503 37.0757 40.2503 37.0848 40.2503 37.094C40.2503 37.1031 40.2503 37.1122 40.2503 37.1214C40.2503 37.1305 40.2503 37.1397 40.2503 37.1489C40.2503 37.1581 40.2503 37.1673 40.2503 37.1766C40.2503 37.1858 40.2503 37.1951 40.2503 37.2044C40.2503 37.2137 40.2503 37.223 40.2503 37.2323C40.2503 37.2416 40.2503 37.251 40.2503 37.2603C40.2503 37.2697 40.2503 37.2791 40.2503 37.2885C40.2503 37.2979 40.2503 37.3073 40.2503 37.3168C40.2503 37.3262 40.2503 37.3357 40.2503 37.3452C40.2503 37.3547 40.2503 37.3642 40.2503 37.3737C40.2503 37.3832 40.2503 37.3928 40.2503 37.4023C40.2503 37.4119 40.2503 37.4215 40.2503 37.4311C40.2503 37.4407 40.2503 37.4504 40.2503 37.46C40.2503 37.4697 40.2503 37.4794 40.2503 37.4891C40.2503 37.4988 40.2503 37.5085 40.2503 37.5182C40.2503 37.5279 40.2503 37.5377 40.2503 37.5475C40.2503 37.5573 40.2503 37.5671 40.2503 37.5769C40.2503 37.5867 40.2503 37.5966 40.2503 37.6064C40.2503 37.6163 40.2503 37.6262 40.2503 37.6361C40.2503 37.646 40.2503 37.6559 40.2503 37.6659C40.2503 37.6758 40.2503 37.6858 40.2503 37.6958C40.2503 37.7058 40.2503 37.7158 40.2503 37.7258C40.2503 37.7359 40.2503 37.7459 40.2503 37.756C40.2503 37.7661 40.2503 37.7762 40.2503 37.7863C40.2503 37.7964 40.2503 37.8066 40.2503 37.8167C40.2503 37.8269 40.2503 37.8371 40.2503 37.8473C40.2503 37.8575 40.2503 37.8677 40.2503 37.878C40.2503 37.8882 40.2503 37.8985 40.2503 37.9088C40.2503 37.9191 40.2503 37.9294 40.2503 37.9397C40.2503 37.95 40.2503 37.9604 40.2503 37.9708C40.2503 37.9812 40.2503 37.9916 40.2503 38.002C40.2503 38.0124 40.2503 38.0229 40.2503 38.0333C40.2503 38.0438 40.2503 38.0543 40.2503 38.0648C40.2503 38.0753 40.2503 38.0858 40.2503 38.0964C40.2503 38.1069 40.2503 38.1175 40.2503 38.1281C40.2503 38.1387 40.2503 38.1493 40.2503 38.16C40.2503 38.1706 40.2503 38.1813 40.2503 38.1919C40.2503 38.2026 40.2503 38.2133 40.2503 38.2241C40.2503 38.2348 40.2503 38.2455 40.2503 38.2563C40.2503 38.2671 40.2503 38.2779 40.2503 38.2887C40.2503 38.2995 40.2503 38.3104 40.2503 38.3212C40.2503 38.3321 40.2503 38.343 40.2503 38.3539C40.2503 38.3648 40.2503 38.3757 40.2503 38.3866C40.2503 38.3976 40.2503 38.4086 40.2503 38.4196C40.2503 38.4306 40.2503 38.4416 40.2503 38.4526C40.2503 38.4637 40.2503 38.4747 40.2503 38.4858C40.2503 38.4969 40.2503 38.508 40.2503 38.5191C40.2503 38.5302 40.2503 38.5414 40.2503 38.5526C40.2503 38.5637 40.2503 38.5749 40.2503 38.5862C40.2503 38.5974 40.2503 38.6086 40.2503 38.6199C40.2503 38.6311 40.2503 38.6424 40.2503 38.6537C40.2503 38.6651 40.2503 38.6764 40.2503 38.6877C40.2503 38.6991 40.2503 38.7105 40.2503 38.7219C40.2503 38.7333 40.2503 38.7447 40.2503 38.7561C40.2503 38.7676 40.2503 38.779 40.2503 38.7905C40.2503 38.802 40.2503 38.8135 40.2503 38.8251C40.2503 38.8366 40.2503 38.8482 40.2503 38.8598C40.2503 38.8713 40.2503 38.8829 40.2503 38.8946C40.2503 38.9062 40.2503 38.9178 40.2503 38.9295C40.2503 38.9412 40.2503 38.9529 40.2503 38.9646C40.2503 38.9763 40.2503 38.9881 40.2503 38.9998C40.2503 39.0116 40.2503 39.0234 40.2503 39.0352C40.2503 39.047 40.2503 39.0589 40.2503 39.0707H41.7503C41.7503 39.0589 41.7503 39.047 41.7503 39.0352C41.7503 39.0234 41.7503 39.0116 41.7503 38.9998C41.7503 38.9881 41.7503 38.9763 41.7503 38.9646C41.7503 38.9529 41.7503 38.9412 41.7503 38.9295C41.7503 38.9178 41.7503 38.9062 41.7503 38.8946C41.7503 38.8829 41.7503 38.8713 41.7503 38.8598C41.7503 38.8482 41.7503 38.8366 41.7503 38.8251C41.7503 38.8135 41.7503 38.802 41.7503 38.7905C41.7503 38.779 41.7503 38.7676 41.7503 38.7561C41.7503 38.7447 41.7503 38.7333 41.7503 38.7219C41.7503 38.7105 41.7503 38.6991 41.7503 38.6877C41.7503 38.6764 41.7503 38.6651 41.7503 38.6537C41.7503 38.6424 41.7503 38.6311 41.7503 38.6199C41.7503 38.6086 41.7503 38.5974 41.7503 38.5862C41.7503 38.5749 41.7503 38.5637 41.7503 38.5526C41.7503 38.5414 41.7503 38.5302 41.7503 38.5191C41.7503 38.508 41.7503 38.4969 41.7503 38.4858C41.7503 38.4747 41.7503 38.4637 41.7503 38.4526C41.7503 38.4416 41.7503 38.4306 41.7503 38.4196C41.7503 38.4086 41.7503 38.3976 41.7503 38.3866C41.7503 38.3757 41.7503 38.3648 41.7503 38.3539C41.7503 38.343 41.7503 38.3321 41.7503 38.3212C41.7503 38.3104 41.7503 38.2995 41.7503 38.2887C41.7503 38.2779 41.7503 38.2671 41.7503 38.2563C41.7503 38.2455 41.7503 38.2348 41.7503 38.2241C41.7503 38.2133 41.7503 38.2026 41.7503 38.1919C41.7503 38.1813 41.7503 38.1706 41.7503 38.16C41.7503 38.1493 41.7503 38.1387 41.7503 38.1281C41.7503 38.1175 41.7503 38.1069 41.7503 38.0964C41.7503 38.0858 41.7503 38.0753 41.7503 38.0648C41.7503 38.0543 41.7503 38.0438 41.7503 38.0333C41.7503 38.0229 41.7503 38.0124 41.7503 38.002C41.7503 37.9916 41.7503 37.9812 41.7503 37.9708C41.7503 37.9604 41.7503 37.95 41.7503 37.9397C41.7503 37.9294 41.7503 37.9191 41.7503 37.9088C41.7503 37.8985 41.7503 37.8882 41.7503 37.878C41.7503 37.8677 41.7503 37.8575 41.7503 37.8473C41.7503 37.8371 41.7503 37.8269 41.7503 37.8167C41.7503 37.8066 41.7503 37.7964 41.7503 37.7863C41.7503 37.7762 41.7503 37.7661 41.7503 37.756C41.7503 37.7459 41.7503 37.7359 41.7503 37.7258C41.7503 37.7158 41.7503 37.7058 41.7503 37.6958C41.7503 37.6858 41.7503 37.6758 41.7503 37.6659C41.7503 37.6559 41.7503 37.646 41.7503 37.6361C41.7503 37.6262 41.7503 37.6163 41.7503 37.6064C41.7503 37.5966 41.7503 37.5867 41.7503 37.5769C41.7503 37.5671 41.7503 37.5573 41.7503 37.5475C41.7503 37.5377 41.7503 37.5279 41.7503 37.5182C41.7503 37.5085 41.7503 37.4988 41.7503 37.4891C41.7503 37.4794 41.7503 37.4697 41.7503 37.46C41.7503 37.4504 41.7503 37.4407 41.7503 37.4311C41.7503 37.4215 41.7503 37.4119 41.7503 37.4023C41.7503 37.3928 41.7503 37.3832 41.7503 37.3737C41.7503 37.3642 41.7503 37.3547 41.7503 37.3452C41.7503 37.3357 41.7503 37.3262 41.7503 37.3168C41.7503 37.3073 41.7503 37.2979 41.7503 37.2885C41.7503 37.2791 41.7503 37.2697 41.7503 37.2603C41.7503 37.251 41.7503 37.2416 41.7503 37.2323C41.7503 37.223 41.7503 37.2137 41.7503 37.2044C41.7503 37.1951 41.7503 37.1858 41.7503 37.1766C41.7503 37.1673 41.7503 37.1581 41.7503 37.1489C41.7503 37.1397 41.7503 37.1305 41.7503 37.1214C41.7503 37.1122 41.7503 37.1031 41.7503 37.094C41.7503 37.0848 41.7503 37.0757 41.7503 37.0667C41.7503 37.0576 41.7503 37.0485 41.7503 37.0395C41.7503 37.0305 41.7503 37.0214 41.7503 37.0124C41.7503 37.0034 41.7503 36.9945 41.7503 36.9855C41.7503 36.9765 41.7503 36.9676 41.7503 36.9587C41.7503 36.9498 41.7503 36.9409 41.7503 36.932C41.7503 36.9231 41.7503 36.9143 41.7503 36.9054C41.7503 36.8966 41.7503 36.8878 41.7503 36.879C41.7503 36.8702 41.7503 36.8614 41.7503 36.8526C41.7503 36.8439 41.7503 36.8351 41.7503 36.8264C41.7503 36.8177 41.7503 36.809 41.7503 36.8003C41.7503 36.7917 41.7503 36.783 41.7503 36.7744C41.7503 36.7657 41.7503 36.7571 41.7503 36.7485C41.7503 36.7399 41.7503 36.7313 41.7503 36.7228C41.7503 36.7142 41.7503 36.7057 41.7503 36.6971C41.7503 36.6886 41.7503 36.6801 41.7503 36.6716C41.7503 36.6632 41.7503 36.6547 41.7503 36.6463C41.7503 36.6378 41.7503 36.6294 41.7503 36.621C41.7503 36.6126 41.7503 36.6042 41.7503 36.5958C41.7503 36.5875 41.7503 36.5791 41.7503 36.5708C41.7503 36.5625 41.7503 36.5542 41.7503 36.5459C41.7503 36.5376 41.7503 36.5293 41.7503 36.5211C41.7503 36.5128 41.7503 36.5046 41.7503 36.4964C41.7503 36.4882 41.7503 36.48 41.7503 36.4718C41.7503 36.4637 41.7503 36.4555 41.7503 36.4474C41.7503 36.4392 41.7503 36.4311 41.7503 36.423C41.7503 36.4149 41.7503 36.4069 41.7503 36.3988C41.7503 36.3908 41.7503 36.3827 41.7503 36.3747C41.7503 36.3667 41.7503 36.3587 41.7503 36.3507C41.7503 36.3427 41.7503 36.3348 41.7503 36.3268C41.7503 36.3189 41.7503 36.311 41.7503 36.3031C41.7503 36.2952 41.7503 36.2873 41.7503 36.2794C41.7503 36.2715 41.7503 36.2637 41.7503 36.2559C41.7503 36.248 41.7503 36.2402 41.7503 36.2324C41.7503 36.2246 41.7503 36.2169 41.7503 36.2091C41.7503 36.2014 41.7503 36.1936 41.7503 36.1859C41.7503 36.1782 41.7503 36.1705 41.7503 36.1628C41.7503 36.1551 41.7503 36.1475 41.7503 36.1398C41.7503 36.1322 41.7503 36.1246 41.7503 36.117C41.7503 36.1094 41.7503 36.1018 41.7503 36.0942C41.7503 36.0866 41.7503 36.0791 41.7503 36.0716C41.7503 36.064 41.7503 36.0565 41.7503 36.049C41.7503 36.0415 41.7503 36.0341 41.7503 36.0266C41.7503 36.0192 41.7503 36.0117 41.7503 36.0043C41.7503 35.9969 41.7503 35.9895 41.7503 35.9821C41.7503 35.9747 41.7503 35.9673 41.7503 35.96C41.7503 35.9527 41.7503 35.9453 41.7503 35.938C41.7503 35.9307 41.7503 35.9234 41.7503 35.9161C41.7503 35.9089 41.7503 35.9016 41.7503 35.8944C41.7503 35.8871 41.7503 35.8799 41.7503 35.8727C41.7503 35.8655 41.7503 35.8583 41.7503 35.8512C41.7503 35.844 41.7503 35.8368 41.7503 35.8297C41.7503 35.8226 41.7503 35.8155 41.7503 35.8084C41.7503 35.8013 41.7503 35.7942 41.7503 35.7872C41.7503 35.7801 41.7503 35.7731 41.7503 35.766C41.7503 35.759 41.7503 35.752 41.7503 35.745C41.7503 35.738 41.7503 35.7311 41.7503 35.7241C41.7503 35.7172 41.7503 35.7102 41.7503 35.7033C41.7503 35.6964 41.7503 35.6895 41.7503 35.6826C41.7503 35.6757 41.7503 35.6689 41.7503 35.662C41.7503 35.6552 41.7503 35.6484 41.7503 35.6415C41.7503 35.6347 41.7503 35.6279 41.7503 35.6212C41.7503 35.6144 41.7503 35.6076 41.7503 35.6009C41.7503 35.5942 41.7503 35.5874 41.7503 35.5807C41.7503 35.574 41.7503 35.5673 41.7503 35.5607C41.7503 35.554 41.7503 35.5473 41.7503 35.5407C41.7503 35.5341 41.7503 35.5275 41.7503 35.5209C41.7503 35.5143 41.7503 35.5077 41.7503 35.5011C41.7503 35.4945 41.7503 35.488 41.7503 35.4815C41.7503 35.4749 41.7503 35.4684 41.7503 35.4619C41.7503 35.4554 41.7503 35.4489 41.7503 35.4425C41.7503 35.436 41.7503 35.4296 41.7503 35.4231C41.7503 35.4167 41.7503 35.4103 41.7503 35.4039C41.7503 35.3975 41.7503 35.3911 41.7503 35.3848C41.7503 35.3784 41.7503 35.3721 41.7503 35.3657C41.7503 35.3594 41.7503 35.3531 41.7503 35.3468C41.7503 35.3405 41.7503 35.3342 41.7503 35.328C41.7503 35.3217 41.7503 35.3155 41.7503 35.3092C41.7503 35.303 41.7503 35.2968 41.7503 35.2906C41.7503 35.2844 41.7503 35.2782 41.7503 35.2721C41.7503 35.2659 41.7503 35.2598 41.7503 35.2537C41.7503 35.2475 41.7503 35.2414 41.7503 35.2353C41.7503 35.2292 41.7503 35.2232 41.7503 35.2171C41.7503 35.211 41.7503 35.205 41.7503 35.199C41.7503 35.1929 41.7503 35.1869 41.7503 35.1809C41.7503 35.1749 41.7503 35.169 41.7503 35.163C41.7503 35.157 41.7503 35.1511 41.7503 35.1452C41.7503 35.1392 41.7503 35.1333 41.7503 35.1274C41.7503 35.1215 41.7503 35.1157 41.7503 35.1098C41.7503 35.1039 41.7503 35.0981 41.7503 35.0923C41.7503 35.0864 41.7503 35.0806 41.7503 35.0748C41.7503 35.069 41.7503 35.0632 41.7503 35.0575C41.7503 35.0517 41.7503 35.046 41.7503 35.0402C41.7503 35.0345 41.7503 35.0288 41.7503 35.0231C41.7503 35.0174 41.7503 35.0117 41.7503 35.006C41.7503 35.0004 41.7503 34.9947 41.7503 34.9891C41.7503 34.9834 41.7503 34.9778 41.7503 34.9722C41.7503 34.9666 41.7503 34.961 41.7503 34.9554C41.7503 34.9499 41.7503 34.9443 41.7503 34.9388C41.7503 34.9332 41.7503 34.9277 41.7503 34.9222C41.7503 34.9167 41.7503 34.9112 41.7503 34.9057C41.7503 34.9002 41.7503 34.8948 41.7503 34.8893C41.7503 34.8839 41.7503 34.8784 41.7503 34.873C41.7503 34.8676 41.7503 34.8622 41.7503 34.8568C41.7503 34.8514 41.7503 34.8461 41.7503 34.8407C41.7503 34.8354 41.7503 34.83 41.7503 34.8247C41.7503 34.8194 41.7503 34.8141 41.7503 34.8088C41.7503 34.8035 41.7503 34.7982 41.7503 34.793C41.7503 34.7877 41.7503 34.7825 41.7503 34.7772C41.7503 34.772 41.7503 34.7668 41.7503 34.7616C41.7503 34.7564 41.7503 34.7512 41.7503 34.746C41.7503 34.7409 41.7503 34.7357 41.7503 34.7306C41.7503 34.7254 41.7503 34.7203 41.7503 34.7152C41.7503 34.7101 41.7503 34.705 41.7503 34.6999C41.7503 34.6949 41.7503 34.6898 41.7503 34.6848C41.7503 34.6797 41.7503 34.6747 41.7503 34.6697C41.7503 34.6646 41.7503 34.6596 41.7503 34.6547C41.7503 34.6497 41.7503 34.6447 41.7503 34.6397C41.7503 34.6348 41.7503 34.6298 41.7503 34.6249C41.7503 34.62 41.7503 34.6151 41.7503 34.6102C41.7503 34.6053 41.7503 34.6004 41.7503 34.5955C41.7503 34.5907 41.7503 34.5858 41.7503 34.581C41.7503 34.5761 41.7503 34.5713 41.7503 34.5665C41.7503 34.5617 41.7503 34.5569 41.7503 34.5521C41.7503 34.5474 41.7503 34.5426 41.7503 34.5379C41.7503 34.5331 41.7503 34.5284 41.7503 34.5236C41.7503 34.5189 41.7503 34.5142 41.7503 34.5095C41.7503 34.5048 41.7503 34.5002 41.7503 34.4955C41.7503 34.4908 41.7503 34.4862 41.7503 34.4816C41.7503 34.4769 41.7503 34.4723 41.7503 34.4677C41.7503 34.4631 41.7503 34.4585 41.7503 34.4539C41.7503 34.4494 41.7503 34.4448 41.7503 34.4403C41.7503 34.4357 41.7503 34.4312 41.7503 34.4267C41.7503 34.4222 41.7503 34.4177 41.7503 34.4132C41.7503 34.4087 41.7503 34.4042 41.7503 34.3997C41.7503 34.3953 41.7503 34.3908 41.7503 34.3864C41.7503 34.382 41.7503 34.3776 41.7503 34.3732C41.7503 34.3687 41.7503 34.3644 41.7503 34.36C41.7503 34.3556 41.7503 34.3512 41.7503 34.3469C41.7503 34.3426 41.7503 34.3382 41.7503 34.3339C41.7503 34.3296 41.7503 34.3253 41.7503 34.321C41.7503 34.3167 41.7503 34.3124 41.7503 34.3082C41.7503 34.3039 41.7503 34.2996 41.7503 34.2954C41.7503 34.2912 41.7503 34.2869 41.7503 34.2827C41.7503 34.2785 41.7503 34.2743 41.7503 34.2702C41.7503 34.266 41.7503 34.2618 41.7503 34.2577C41.7503 34.2535 41.7503 34.2494 41.7503 34.2452C41.7503 34.2411 41.7503 34.237 41.7503 34.2329C41.7503 34.2288 41.7503 34.2247 41.7503 34.2206C41.7503 34.2166 41.7503 34.2125 41.7503 34.2085C41.7503 34.2044 41.7503 34.2004 41.7503 34.1964C41.7503 34.1924 41.7503 34.1884 41.7503 34.1844C41.7503 34.1804 41.7503 34.1764 41.7503 34.1724C41.7503 34.1685 41.7503 34.1645 41.7503 34.1606C41.7503 34.1567 41.7503 34.1527 41.7503 34.1488C41.7503 34.1449 41.7503 34.141 41.7503 34.1371C41.7503 34.1332 41.7503 34.1294 41.7503 34.1255C41.7503 34.1217 41.7503 34.1178 41.7503 34.114C41.7503 34.1102 41.7503 34.1063 41.7503 34.1025C41.7503 34.0987 41.7503 34.0949 41.7503 34.0912C41.7503 34.0874 41.7503 34.0836 41.7503 34.0799C41.7503 34.0761 41.7503 34.0724 41.7503 34.0687C41.7503 34.0649 41.7503 34.0612 41.7503 34.0575C41.7503 34.0538 41.7503 34.0501 41.7503 34.0465C41.7503 34.0428 41.7503 34.0391 41.7503 34.0355C41.7503 34.0318 41.7503 34.0282 41.7503 34.0246C41.7503 34.0209 41.7503 34.0173 41.7503 34.0137C41.7503 34.0101 41.7503 34.0065 41.7503 34.003C41.7503 33.9994 41.7503 33.9958 41.7503 33.9923C41.7503 33.9888 41.7503 33.9852 41.7503 33.9817C41.7503 33.9782 41.7503 33.9747 41.7503 33.9712C41.7503 33.9677 41.7503 33.9642 41.7503 33.9607C41.7503 33.9572 41.7503 33.9538 41.7503 33.9503C41.7503 33.9469 41.7503 33.9435 41.7503 33.94C41.7503 33.9366 41.7503 33.9332 41.7503 33.9298C41.7503 33.9264 41.7503 33.923 41.7503 33.9197C41.7503 33.9163 41.7503 33.9129 41.7503 33.9096C41.7503 33.9062 41.7503 33.9029 41.7503 33.8996C41.7503 33.8963 41.7503 33.893 41.7503 33.8897C41.7503 33.8864 41.7503 33.8831 41.7503 33.8798C41.7503 33.8765 41.7503 33.8733 41.7503 33.87C41.7503 33.8668 41.7503 33.8635 41.7503 33.8603C41.7503 33.8571 41.7503 33.8539 41.7503 33.8507C41.7503 33.8475 41.7503 33.8443 41.7503 33.8411C41.7503 33.8379 41.7503 33.8348 41.7503 33.8316C41.7503 33.8285 41.7503 33.8253 41.7503 33.8222C41.7503 33.8191 41.7503 33.8159 41.7503 33.8128C41.7503 33.8097 41.7503 33.8066 41.7503 33.8036C41.7503 33.8005 41.7503 33.7974 41.7503 33.7943C41.7503 33.7913 41.7503 33.7882 41.7503 33.7852C41.7503 33.7822 41.7503 33.7792 41.7503 33.7761C41.7503 33.7731 41.7503 33.7701 41.7503 33.7671C41.7503 33.7642 41.7503 33.7612 41.7503 33.7582C41.7503 33.7552 41.7503 33.7523 41.7503 33.7494C41.7503 33.7464 41.7503 33.7435 41.7503 33.7406C41.7503 33.7376 41.7503 33.7347 41.7503 33.7318C41.7503 33.7289 41.7503 33.7261 41.7503 33.7232C41.7503 33.7203 41.7503 33.7175 41.7503 33.7146C41.7503 33.7118 41.7503 33.7089 41.7503 33.7061C41.7503 33.7033 41.7503 33.7004 41.7503 33.6976C41.7503 33.6948 41.7503 33.692 41.7503 33.6893C41.7503 33.6865 41.7503 33.6837 41.7503 33.681C41.7503 33.6782 41.7503 33.6754 41.7503 33.6727C41.7503 33.67 41.7503 33.6672 41.7503 33.6645C41.7503 33.6618 41.7503 33.6591 41.7503 33.6564C41.7503 33.6537 41.7503 33.651 41.7503 33.6484C41.7503 33.6457 41.7503 33.643 41.7503 33.6404C41.7503 33.6377 41.7503 33.6351 41.7503 33.6325C41.7503 33.6298 41.7503 33.6272 41.7503 33.6246C41.7503 33.622 41.7503 33.6194 41.7503 33.6168C41.7503 33.6143 41.7503 33.6117 41.7503 33.6091C41.7503 33.6066 41.7503 33.604 41.7503 33.6015C41.7503 33.5989 41.7503 33.5964 41.7503 33.5939C41.7503 33.5914 41.7503 33.5888 41.7503 33.5863C41.7503 33.5838 41.7503 33.5814 41.7503 33.5789C41.7503 33.5764 41.7503 33.5739 41.7503 33.5715C41.7503 33.569 41.7503 33.5666 41.7503 33.5641C41.7503 33.5617 41.7503 33.5593 41.7503 33.5569C41.7503 33.5545 41.7503 33.5521 41.7503 33.5497C41.7503 33.5473 41.7503 33.5449 41.7503 33.5425C41.7503 33.5401 41.7503 33.5378 41.7503 33.5354C41.7503 33.5331 41.7503 33.5307 41.7503 33.5284C41.7503 33.5261 41.7503 33.5238 41.7503 33.5214C41.7503 33.5191 41.7503 33.5168 41.7503 33.5145C41.7503 33.5123 41.7503 33.51 41.7503 33.5077C41.7503 33.5054 41.7503 33.5032 41.7503 33.5009C41.7503 33.4987 41.7503 33.4964 41.7503 33.4942C41.7503 33.492 41.7503 33.4898 41.7503 33.4876C41.7503 33.4853 41.7503 33.4831 41.7503 33.481C41.7503 33.4788 41.7503 33.4766 41.7503 33.4744C41.7503 33.4722 41.7503 33.4701 41.7503 33.4679C41.7503 33.4658 41.7503 33.4636 41.7503 33.4615C41.7503 33.4594 41.7503 33.4573 41.7503 33.4552C41.7503 33.453 41.7503 33.4509 41.7503 33.4489C41.7503 33.4468 41.7503 33.4447 41.7503 33.4426C41.7503 33.4405 41.7503 33.4385 41.7503 33.4364C41.7503 33.4344 41.7503 33.4323 41.7503 33.4303C41.7503 33.4283 41.7503 33.4262 41.7503 33.4242C41.7503 33.4222 41.7503 33.4202 41.7503 33.4182C41.7503 33.4162 41.7503 33.4142 41.7503 33.4123C41.7503 33.4103 41.7503 33.4083 41.7503 33.4064C41.7503 33.4044 41.7503 33.4025 41.7503 33.4005C41.7503 33.3986 41.7503 33.3966 41.7503 33.3947C41.7503 33.3928 41.7503 33.3909 41.7503 33.389C41.7503 33.3871 41.7503 33.3852 41.7503 33.3833C41.7503 33.3814 41.7503 33.3796 41.7503 33.3777C41.7503 33.3758 41.7503 33.374 41.7503 33.3721C41.7503 33.3703 41.7503 33.3685 41.7503 33.3666C41.7503 33.3648 41.7503 33.363 41.7503 33.3612C41.7503 33.3594 41.7503 33.3576 41.7503 33.3558C41.7503 33.354 41.7503 33.3522 41.7503 33.3504C41.7503 33.3486 41.7503 33.3469 41.7503 33.3451C41.7503 33.3434 41.7503 33.3416 41.7503 33.3399C41.7503 33.3382 41.7503 33.3364 41.7503 33.3347C41.7503 33.333 41.7503 33.3313 41.7503 33.3296C41.7503 33.3279 41.7503 33.3262 41.7503 33.3245C41.7503 33.3228 41.7503 33.3211 41.7503 33.3195C41.7503 33.3178 41.7503 33.3161 41.7503 33.3145C41.7503 33.3128 41.7503 33.3112 41.7503 33.3096C41.7503 33.3079 41.7503 33.3063 41.7503 33.3047C41.7503 33.3031 41.7503 33.3015 41.7503 33.2999C41.7503 33.2983 41.7503 33.2967 41.7503 33.2951C41.7503 33.2935 41.7503 33.2919 41.7503 33.2904C41.7503 33.2888 41.7503 33.2872 41.7503 33.2857C41.7503 33.2842 41.7503 33.2826 41.7503 33.2811C41.7503 33.2795 41.7503 33.278 41.7503 33.2765C41.7503 33.275 41.7503 33.2735 41.7503 33.272C41.7503 33.2705 41.7503 33.269 41.7503 33.2675C41.7503 33.266 41.7503 33.2646 41.7503 33.2631C41.7503 33.2616 41.7503 33.2602 41.7503 33.2587C41.7503 33.2573 41.7503 33.2558 41.7503 33.2544C41.7503 33.253 41.7503 33.2515 41.7503 33.2501C41.7503 33.2487 41.7503 33.2473 41.7503 33.2459C41.7503 33.2445 41.7503 33.2431 41.7503 33.2417C41.7503 33.2403 41.7503 33.239 41.7503 33.2376C41.7503 33.2362 41.7503 33.2349 41.7503 33.2335C41.7503 33.2321 41.7503 33.2308 41.7503 33.2295C41.7503 33.2281 41.7503 33.2268 41.7503 33.2255C41.7503 33.2241 41.7503 33.2228 41.7503 33.2215C41.7503 33.2202 41.7503 33.2189 41.7503 33.2176C41.7503 33.2163 41.7503 33.2151 41.7503 33.2138C41.7503 33.2125 41.7503 33.2112 41.7503 33.21C41.7503 33.2087 41.7503 33.2075 41.7503 33.2062C41.7503 33.205 41.7503 33.2037 41.7503 33.2025C41.7503 33.2013 41.7503 33.2 41.7503 33.1988C41.7503 33.1976 41.7503 33.1964 41.7503 33.1952C41.7503 33.194 41.7503 33.1928 41.7503 33.1916C41.7503 33.1904 41.7503 33.1892 41.7503 33.1881C41.7503 33.1869 41.7503 33.1857 41.7503 33.1846C41.7503 33.1834 41.7503 33.1823 41.7503 33.1811C41.7503 33.18 41.7503 33.1788 41.7503 33.1777C41.7503 33.1766 41.7503 33.1755 41.7503 33.1743C41.7503 33.1732 41.7503 33.1721 41.7503 33.171C41.7503 33.1699 41.7503 33.1688 41.7503 33.1677C41.7503 33.1666 41.7503 33.1656 41.7503 33.1645C41.7503 33.1634 41.7503 33.1624 41.7503 33.1613C41.7503 33.1602 41.7503 33.1592 41.7503 33.1581C41.7503 33.1571 41.7503 33.1561 41.7503 33.155C41.7503 33.154 41.7503 33.153 41.7503 33.152C41.7503 33.1509 41.7503 33.1499 41.7503 33.1489C41.7503 33.1479 41.7503 33.1469 41.7503 33.1459C41.7503 33.1449 41.7503 33.144 41.7503 33.143C41.7503 33.142 41.7503 33.141 41.7503 33.1401C41.7503 33.1391 41.7503 33.1381 41.7503 33.1372C41.7503 33.1362 41.7503 33.1353 41.7503 33.1344C41.7503 33.1334 41.7503 33.1325 41.7503 33.1316C41.7503 33.1306 41.7503 33.1297 41.7503 33.1288C41.7503 33.1279 41.7503 33.127 41.7503 33.1261C41.7503 33.1252 41.7503 33.1243 41.7503 33.1234C41.7503 33.1225 41.7503 33.1216 41.7503 33.1208C41.7503 33.1199 41.7503 33.119 41.7503 33.1182C41.7503 33.1173 41.7503 33.1165 41.7503 33.1156C41.7503 33.1148 41.7503 33.1139 41.7503 33.1131C41.7503 33.1122 41.7503 33.1114 41.7503 33.1106C41.7503 33.1098 41.7503 33.1089 41.7503 33.1081C41.7503 33.1073 41.7503 33.1065 41.7503 33.1057C41.7503 33.1049 41.7503 33.1041 41.7503 33.1033C41.7503 33.1025 41.7503 33.1018 41.7503 33.101C41.7503 33.1002 41.7503 33.0994 41.7503 33.0987C41.7503 33.0979 41.7503 33.0971 41.7503 33.0964C41.7503 33.0956 41.7503 33.0949 41.7503 33.0942C41.7503 33.0934 41.7503 33.0927 41.7503 33.0919C41.7503 33.0912 41.7503 33.0905 41.7503 33.0898C41.7503 33.0891 41.7503 33.0883 41.7503 33.0876C41.7503 33.0869 41.7503 33.0862 41.7503 33.0855C41.7503 33.0848 41.7503 33.0841 41.7503 33.0835C41.7503 33.0828 41.7503 33.0821 41.7503 33.0814C41.7503 33.0808 41.7503 33.0801 41.7503 33.0794C41.7503 33.0788 41.7503 33.0781 41.7503 33.0775C41.7503 33.0768 41.7503 33.0762 41.7503 33.0755C41.7503 33.0749 41.7503 33.0742 41.7503 33.0736C41.7503 33.073 41.7503 33.0724 41.7503 33.0717C41.7503 33.0711 41.7503 33.0705 41.7503 33.0699C41.7503 33.0693 41.7503 33.0687 41.7503 33.0681C41.7503 33.0675 41.7503 33.0669 41.7503 33.0663C41.7503 33.0657 41.7503 33.0651 41.7503 33.0646C41.7503 33.064 41.7503 33.0634 41.7503 33.0628C41.7503 33.0623 41.7503 33.0617 41.7503 33.0612C41.7503 33.0606 41.7503 33.06 41.7503 33.0595C41.7503 33.0589 41.7503 33.0584 41.7503 33.0579C41.7503 33.0573 41.7503 33.0568 41.7503 33.0563C41.7503 33.0557 41.7503 33.0552 41.7503 33.0547C41.7503 33.0542 41.7503 33.0537 41.7503 33.0532C41.7503 33.0527 41.7503 33.0521 41.7503 33.0517C41.7503 33.0512 41.7503 33.0507 41.7503 33.0502C41.7503 33.0497 41.7503 33.0492 41.7503 33.0487C41.7503 33.0482 41.7503 33.0478 41.7503 33.0473C41.7503 33.0468 41.7503 33.0464 41.7503 33.0459C41.7503 33.0454 41.7503 33.045 41.7503 33.0445C41.7503 33.0441 41.7503 33.0436 41.7503 33.0432C41.7503 33.0427 41.7503 33.0423 41.7503 33.0419C41.7503 33.0414 41.7503 33.041 41.7503 33.0406C41.7503 33.0401 41.7503 33.0397 41.7503 33.0393C41.7503 33.0389 41.7503 33.0385 41.7503 33.0381C41.7503 33.0377 41.7503 33.0373 41.7503 33.0369C41.7503 33.0365 41.7503 33.0361 41.7503 33.0357C41.7503 33.0353 41.7503 33.0349 41.7503 33.0345C41.7503 33.0341 41.7503 33.0337 41.7503 33.0334C41.7503 33.033 41.7503 33.0326 41.7503 33.0323C41.7503 33.0319 41.7503 33.0315 41.7503 33.0312C41.7503 33.0308 41.7503 33.0305 41.7503 33.0301C41.7503 33.0298 41.7503 33.0294 41.7503 33.0291C41.7503 33.0287 41.7503 33.0284 41.7503 33.0281C41.7503 33.0277 41.7503 33.0274 41.7503 33.0271C41.7503 33.0267 41.7503 33.0264 41.7503 33.0261C41.7503 33.0258 41.7503 33.0255 41.7503 33.0251C41.7503 33.0248 41.7503 33.0245 41.7503 33.0242C41.7503 33.0239 41.7503 33.0236 41.7503 33.0233C41.7503 33.023 41.7503 33.0227 41.7503 33.0224C41.7503 33.0222 41.7503 33.0219 41.7503 33.0216C41.7503 33.0213 41.7503 33.021 41.7503 33.0208C41.7503 33.0205 41.7503 33.0202 41.7503 33.0199C41.7503 33.0197 41.7503 33.0194 41.7503 33.0191C41.7503 33.0189 41.7503 33.0186 41.7503 33.0184C41.7503 33.0181 41.7503 33.0179 41.7503 33.0176C41.7503 33.0174 41.7503 33.0171 41.7503 33.0169C41.7503 33.0166 41.7503 33.0164 41.7503 33.0162C41.7503 33.0159 41.7503 33.0157 41.7503 33.0155C41.7503 33.0152 41.7503 33.015 41.7503 33.0148C41.7503 33.0146 41.7503 33.0144 41.7503 33.0141C41.7503 33.0139 41.7503 33.0137 41.7503 33.0135C41.7503 33.0133 41.7503 33.0131 41.7503 33.0129C41.7503 33.0127 41.7503 33.0125 41.7503 33.0123C41.7503 33.0121 41.7503 33.0119 41.7503 33.0117C41.7503 33.0115 41.7503 33.0113 41.7503 33.0111C41.7503 33.011 41.7503 33.0108 41.7503 33.0106C41.7503 33.0104 41.7503 33.0102 41.7503 33.0101C41.7503 33.0099 41.7503 33.0097 41.7503 33.0096C41.7503 33.0094 41.7503 33.0092 41.7503 33.0091C41.7503 33.0089 41.7503 33.0087 41.7503 33.0086C41.7503 33.0084 41.7503 33.0083 41.7503 33.0081C41.7503 33.008 41.7503 33.0078 41.7503 33.0077C41.7503 33.0075 41.7503 33.0074 41.7503 33.0072C41.7503 33.0071 41.7503 33.0069 41.7503 33.0068C41.7503 33.0067 41.7503 33.0065 41.7503 33.0064C41.7503 33.0063 41.7503 33.0061 41.7503 33.006C41.7503 33.0059 41.7503 33.0058 41.7503 33.0056C41.7503 33.0055 41.7503 33.0054 41.7503 33.0053C41.7503 33.0052 41.7503 33.0051 41.7503 33.0049C41.7503 33.0048 41.7503 33.0047 41.7503 33.0046C41.7503 33.0045 41.7503 33.0044 41.7503 33.0043C41.7503 33.0042 41.7503 33.0041 41.7503 33.004C41.7503 33.0039 41.7503 33.0038 41.7503 33.0037C41.7503 33.0036 41.7503 33.0035 41.7503 33.0034C41.7503 33.0033 41.7503 33.0032 41.7503 33.0031C41.7503 33.0031 41.7503 33.003 41.7503 33.0029C41.7503 33.0028 41.7503 33.0027 41.7503 33.0026C41.7503 33.0026 41.7503 33.0025 41.7503 33.0024C41.7503 33.0023 41.7503 33.0023 41.7503 33.0022C41.7503 33.0021 41.7503 33.002 41.7503 33.002C41.7503 33.0019 41.7503 33.0018 41.7503 33.0018C41.7503 33.0017 41.7503 33.0016 41.7503 33.0016C41.7503 33.0015 41.7503 33.0015 41.7503 33.0014C41.7503 33.0013 41.7503 33.0013 41.7503 33.0012C41.7503 33.0012 41.7503 33.0011 41.7503 33.0011C41.7503 33.001 41.7503 33.001 41.7503 33.0009C41.7503 33.0009 41.7503 33.0008 41.7503 33.0008C41.7503 33.0007 41.7503 33.0007 41.7503 33.0006C41.7503 33.0006 41.7503 33.0005 41.7503 33.0005C41.7503 33.0005 41.7503 33.0004 41.7503 33.0004C41.7503 33.0003 41.7503 33.0003 41.7503 33.0003C41.7503 33.0002 41.7503 33.0002 41.7503 33.0002C41.7503 33.0001 41.7503 33.0001 41.7503 33.0001C41.7503 33 41.7503 33 41.7503 33C41.7503 33 41.7503 32.9999 41.7503 32.9999C41.7503 32.9999 41.7503 32.9999 41.7503 32.9998C41.7503 32.9998 41.7503 32.9998 41.7503 32.9998C41.7503 32.9997 41.7503 32.9997 41.7503 32.9997C41.7503 32.9997 41.7503 32.9997 41.7503 32.9996C41.7503 32.9996 41.7503 32.9996 41.7503 32.9996C41.7503 32.9996 41.7503 32.9996 41.7503 32.9995C41.7503 32.9995 41.7503 32.9995 41.7503 32.9995C41.7503 32.9995 41.7503 32.9995 41.7503 32.9995C41.7503 32.9995 41.7503 32.9994 41.7503 32.9994C41.7503 32.9994 41.7503 32.9994 41.7503 32.9994C41.7503 32.9994 41.7503 32.9994 41.7503 32.9994C41.7503 32.9994 41.7503 32.9994 41.7503 32.9994C41.7503 32.9994 41.7503 32.9994 41.7503 32.9993C41.7503 32.9993 41.7503 32.9993 41.7503 32.9993C41.7503 32.9993 41.7503 32.9993 41.7503 32.9993C41.7503 32.9993 41.7503 32.9993 41.7503 32.9993C41.7503 32.9993 41.7503 32.9993 41.7503 32.9993C41.7503 32.9993 41.7503 32.9993 41.7503 32.9993C41.7503 32.9993 41.7503 32.9993 41.7503 32.9993C41.7503 32.9993 41.7503 32.9993 41.7503 32.9993C41.7503 32.9993 41.7503 32.9993 41.7503 32.9993V32.9993C41.7503 32.9993 41.7503 32.9993 41.7503 32.9993H41.0003ZM41.7503 32.9993V26.9279H40.2503V32.9993H41.7503Z" fill="#FBFDFF"/>
<defs>
<filter id="filter0_d_1_219" x="0" y="0" width="82" height="82" filterUnits="userSpaceOnUse" color-interpolation-filters="sRGB">
<feFlood flood-opacity="0" result="BackgroundImageFix"/>
<feColorMatrix in="SourceAlpha" type="matrix" values="0 0 0 0 0 0 0 0 0 0 0 0 0 0 0 0 0 0 127 0" result="hardAlpha"/>
<feOffset dy="8"/>
<feGaussianBlur stdDeviation="12"/>
<feComposite in2="hardAlpha" operator="out"/>
<feColorMatrix type="matrix" values="0 0 0 0 0 0 0 0 0 0 0 0 0 0 0 0 0 0 0.25 0"/>
<feBlend mode="normal" in2="BackgroundImageFix" result="effect1_dropShadow_1_219"/>
<feBlend mode="normal" in="SourceGraphic" in2="effect1_dropShadow_1_219" result="shape"/>
</filter>
<linearGradient id="paint0_linear_1_219" x1="24" y1="33" x2="58" y2="33" gradientUnits="userSpaceOnUse">
<stop stop-color="#2F9DCB"/>
<stop offset="1" stop-color="#61B0D1"/>
</linearGradient>
</defs>
</svg>
